#N canvas 487 194 303 444 10;
#X obj -31 65 udpreceive 8000;
#X obj -31 87 unpackOSC;
#X obj -31 134 unpack 0 0 0 0 0 0 0 0 0 0 0 0 0 0 0 0;
#X obj -31 302 mtof;
#X obj 5 401 dac~;
#X obj 5 371 freeverb~;
#X obj 5 347 *~;
#X obj -66 0 cnv 15 300 50 empty empty IR_Theremin 5 10 0 16 -262130
-66577 0;
#X text -60 26 x-OSC pd-example patch \, see www.x-io.co.uk/x-osc;
#X obj 32 323 loadbang;
#X msg 32 347 dry 1;
#X obj -31 186 mavg 6;
#X obj 20 186 mavg 6;
#X obj -31 323 cycle~;
#X obj -31 258 int;
#X obj -31 281 change;
#X obj -31 210 sqrt;
#X obj -31 234 maxlib/scale 0 1 24 127;
#X floatatom 23 160 5 0 0 0 - - -;
#X floatatom -63 158 5 0 0 0 - - -;
#X obj 20 275 *~ 0.3;
#X obj -31 110 routeOSC /inputs/analogue;
#X connect 0 0 1 0;
#X connect 1 0 21 0;
#X connect 2 0 11 0;
#X connect 2 0 19 0;
#X connect 2 1 12 0;
#X connect 2 1 18 0;
#X connect 3 0 13 0;
#X connect 5 0 4 0;
#X connect 5 1 4 1;
#X connect 6 0 5 0;
#X connect 6 0 5 1;
#X connect 9 0 10 0;
#X connect 10 0 5 0;
#X connect 11 0 16 0;
#X connect 12 0 20 0;
#X connect 13 0 6 0;
#X connect 14 0 15 0;
#X connect 15 0 3 0;
#X connect 16 0 17 0;
#X connect 17 0 14 0;
#X connect 20 0 6 1;
#X connect 21 0 2 0;
